<svg version="1.0" xmlns="http://www.w3.org/2000/svg"
width="196" height="196" viewBox="0 0 512 512"
 preserveAspectRatio="xMidYMid meet">

<g transform="translate(0.000000,500.000000) scale(0.100000,-0.100000)"
fill="#000000" stroke="none">
<path d="M2275 4084 c-343 -61 -649 -264 -840 -559 -136 -209 -193 -389 -202
-641 -8 -227 19 -377 101 -565 163 -370 486 -635 896 -734 90 -22 349 -31 447
-16 308 48 571 189 772 414 162 182 265 396 307 641 24 135 15 378 -19 506
-113 431 -398 749 -807 900 -180 66 -457 89 -655 54z m57 -776 c-7 -7 -12 -8
-12 -2 0 14 12 26 19 19 2 -3 -1 -11 -7 -17z m83 12 c-3 -5 -12 -7 -20 -3 -21
7 -19 13 6 13 11 0 18 -4 14 -10z m66 -7 c13 -16 12 -17 -3 -4 -10 7 -18 15
-18 17 0 8 8 3 21 -13z m153 -34 c-8 -13 -24 -1 -24 18 0 13 3 13 15 3 8 -7
12 -16 9 -21z m-354 -6 c0 -20 -3 -24 -11 -16 -7 7 -9 19 -6 27 10 24 17 19
17 -11z m25 17 c3 -5 1 -10 -4 -10 -6 0 -11 5 -11 10 0 6 2 10 4 10 3 0 8 -4
11 -10z m120 0 c3 -5 -1 -10 -9 -10 -9 0 -16 5 -16 10 0 6 4 10 9 10 6 0 13
-4 16 -10z m45 6 c0 -2 -7 -7 -16 -10 -8 -3 -12 -2 -9 4 6 10 25 14 25 6z
m117 -18 c-3 -8 -6 -5 -6 6 -1 11 2 17 5 13 3 -3 4 -12 1 -19z m-227 -3 c0 -8
-4 -15 -10 -15 -5 0 -10 7 -10 15 0 8 5 15 10 15 6 0 10 -7 10 -15z m80 -26
c0 -14 -16 -11 -29 5 -10 12 -8 13 8 9 12 -3 21 -9 21 -14z m25 0 c-3 -5 2 -6
12 -2 15 5 16 3 6 -8 -24 -24 -13 -33 12 -9 13 12 23 26 20 29 -2 4 8 7 23 8
l27 2 -25 -10 c-25 -10 -25 -11 -5 -26 20 -15 20 -15 -1 -9 -25 8 -49 -16 -60
-59 l-7 -30 27 24 c17 16 22 27 15 31 -6 4 3 7 20 6 34 -1 44 -16 11 -16 -12
0 -28 -13 -40 -32 -17 -29 -18 -34 -4 -61 l15 -29 30 44 c54 79 79 111 79 100
0 -6 8 -9 18 -5 11 3 9 0 -6 -11 -12 -10 -19 -22 -16 -28 4 -6 2 -8 -3 -5 -6
4 -17 -1 -24 -10 -12 -15 -12 -16 6 -10 12 5 8 -2 -12 -18 -30 -24 -53 -75
-53 -117 0 -30 67 10 95 56 14 23 32 40 44 41 11 1 18 -2 15 -7 -4 -5 -12 -7
-19 -4 -11 4 -35 -38 -35 -60 0 -6 122 3 145 10 11 4 7 0 -9 -8 -29 -13 -29
-14 -7 -21 17 -5 20 -9 11 -15 -7 -4 -9 -13 -6 -19 4 -6 3 -11 -3 -11 -17 0
-24 22 -10 31 9 6 -7 9 -43 9 -58 0 -68 -6 -46 -28 9 -9 9 -12 0 -12 -7 0 -15
7 -18 15 -4 8 -15 15 -26 15 -12 0 -17 -4 -12 -12 5 -7 2 -9 -8 -5 -9 3 -24
-1 -35 -9 -17 -15 -17 -15 7 -10 14 2 66 -1 115 -9 69 -10 81 -13 50 -15 -22
-2 -64 -2 -93 -1 -56 3 -102 -17 -102 -44 0 -12 28 -15 158 -18 86 -1 -3 -3
-198 -3 -195 0 -284 2 -197 3 157 3 158 4 155 26 -2 14 -11 23 -27 25 -34 5
-93 -7 -86 -18 3 -5 0 -12 -6 -16 -8 -4 -9 -3 -5 4 4 7 0 12 -11 13 -12 0 -8
4 11 11 21 8 25 13 15 19 -9 5 8 9 45 9 51 0 57 2 46 15 -15 18 -55 21 -44 4
4 -7 1 -10 -7 -7 -8 3 -13 11 -12 17 3 13 -28 14 -81 2 -22 -6 -48 -6 -60 -1
-19 8 -19 9 -2 9 15 1 16 4 6 16 -8 10 -9 15 -2 15 6 0 15 -8 21 -17 7 -14 14
-15 33 -6 22 10 21 11 -25 33 -26 12 -46 24 -44 27 3 2 17 -2 31 -9 23 -10 29
-9 38 3 8 11 9 11 4 -3 -4 -13 0 -18 13 -18 11 0 21 3 24 8 2 4 3 2 1 -4 -2
-10 58 -24 103 -24 30 0 -9 42 -60 64 -29 13 -63 28 -77 35 l-25 11 25 -6 25
-7 -20 24 -20 24 26 -22 c14 -13 46 -30 71 -39 26 -8 58 -26 73 -40 l26 -24
-6 22 c-13 42 -36 69 -91 104 -29 19 -54 37 -54 40 0 3 5 2 12 -2 8 -5 9 -1 4
12 -5 14 -1 12 16 -7 13 -14 35 -33 50 -42 33 -20 38 -11 38 69 0 35 4 53 10
49 6 -4 8 -11 5 -16z m249 -3 c-6 -16 -24 -23 -24 -8 0 10 22 33 27 28 2 -2 1
-11 -3 -20z m-394 -8 c0 -6 -6 -5 -15 2 -8 7 -15 14 -15 16 0 2 7 1 15 -2 8
-4 15 -11 15 -16z m56 -26 c-12 -11 -18 7 -10 30 l8 23 4 -23 c2 -13 1 -26 -2
-30z m378 33 c-4 -8 -10 -12 -15 -9 -11 6 -2 24 11 24 5 0 7 -7 4 -15z m-103
-28 c-8 -8 -11 -7 -11 4 0 20 13 34 18 19 3 -7 -1 -17 -7 -23z m144 23 c-3 -5
-11 -10 -16 -10 -6 0 -7 5 -4 10 3 6 11 10 16 10 6 0 7 -4 4 -10z m-515 -16
c0 -2 -7 -4 -15 -4 -8 0 -15 4 -15 10 0 5 7 7 15 4 8 -4 15 -8 15 -10z m145
-26 c-2 -24 -25 -39 -25 -16 0 11 18 38 25 38 1 0 1 -10 0 -22z m170 -6 c-8
-8 -25 10 -19 20 4 6 9 5 15 -3 4 -7 6 -15 4 -17z m-385 -20 c0 -7 -4 -10 -10
-7 -5 3 -10 16 -10 28 0 18 2 19 10 7 5 -8 10 -21 10 -28z m39 29 c8 -5 9 -11
3 -15 -5 -3 -15 1 -22 9 -14 16 -3 20 19 6z m518 3 c-3 -3 -12 -4 -19 -1 -8 3
-5 6 6 6 11 1 17 -2 13 -5z m-452 -14 c-3 -5 -12 -10 -20 -10 -8 0 -17 5 -20
10 -4 6 5 10 20 10 15 0 24 -4 20 -10z m384 -11 c-19 -12 -29 -11 -29 2 0 5 5
7 10 4 6 -3 10 -1 10 5 0 6 5 8 11 4 8 -4 7 -9 -2 -15z m46 1 c3 -5 1 -10 -4
-10 -6 0 -11 5 -11 10 0 6 2 10 4 10 3 0 8 -4 11 -10z m-90 -10 c3 -5 1 -10
-4 -10 -6 0 -11 5 -11 10 0 6 2 10 4 10 3 0 8 -4 11 -10z m135 -11 c0 -6 -4
-7 -10 -4 -5 3 -10 11 -10 16 0 6 5 7 10 4 6 -3 10 -11 10 -16z m-520 -9 c0
-5 -4 -10 -9 -10 -6 0 -13 5 -16 10 -3 6 1 10 9 10 9 0 16 -4 16 -10z m67 4
c-3 -3 -12 -4 -19 -1 -8 3 -5 6 6 6 11 1 17 -2 13 -5z m208 -4 c-3 -5 -10 -10
-16 -10 -5 0 -9 5 -9 10 0 6 7 10 16 10 8 0 12 -4 9 -10z m190 -9 c3 -5 0 -13
-6 -17 -7 -4 -9 -3 -5 4 3 6 -2 13 -11 15 -16 4 -16 5 -1 6 9 0 19 -3 23 -8z
m89 -6 c3 -8 1 -15 -3 -15 -5 0 -11 7 -15 15 -3 8 -1 15 3 15 5 0 11 -7 15
-15z m-444 -5 c0 -5 -7 -10 -15 -10 -8 0 -15 5 -15 10 0 6 7 10 15 10 8 0 15
-4 15 -10z m-145 -10 c3 -5 -1 -10 -9 -10 -8 0 -18 5 -21 10 -3 6 1 10 9 10 8
0 18 -4 21 -10z m412 4 c-3 -3 -12 -4 -19 -1 -8 3 -5 6 6 6 11 1 17 -2 13 -5z
m-452 -14 c3 -5 2 -10 -4 -10 -5 0 -13 5 -16 10 -3 6 -2 10 4 10 5 0 13 -4 16
-10z m225 -16 c0 -8 -4 -12 -10 -9 -5 3 -10 13 -10 21 0 8 5 12 10 9 6 -3 10
-13 10 -21z m185 6 c3 -5 -1 -10 -9 -10 -9 0 -16 5 -16 10 0 6 4 10 9 10 6 0
13 -4 16 -10z m-429 -14 c10 -8 15 -18 11 -22 -4 -4 -17 2 -29 14 -25 25 -13
30 18 8z m94 4 c0 -5 -7 -10 -16 -10 -8 0 -12 5 -9 10 3 6 10 10 16 10 5 0 9
-4 9 -10z m-40 -10 c0 -5 -4 -10 -10 -10 -5 0 -10 5 -10 10 0 6 5 10 10 10 6
0 10 -4 10 -10z m90 -10 c0 -5 -10 -10 -22 -10 -19 0 -20 2 -8 10 19 13 30 13
30 0z m40 -10 c0 -5 -8 -10 -17 -10 -15 0 -16 2 -3 10 19 12 20 12 20 0z m339
-4 c9 -11 9 -16 0 -22 -8 -4 -9 -3 -5 4 4 7 2 12 -3 12 -6 0 -11 5 -11 10 0
14 5 13 19 -4z m-564 -6 c-3 -5 -13 -10 -21 -10 -8 0 -12 5 -9 10 3 6 13 10
21 10 8 0 12 -4 9 -10z m462 -12 c-3 -8 -6 -5 -6 6 -1 11 2 17 5 13 3 -3 4
-12 1 -19z m73 12 c0 -5 -5 -10 -11 -10 -5 0 -7 5 -4 10 3 6 8 10 11 10 2 0 4
-4 4 -10z m85 0 c-3 -5 -14 -10 -23 -10 -15 0 -15 2 -2 10 20 13 33 13 25 0z
m-363 -22 c-6 -6 -15 -8 -19 -4 -4 4 -1 11 7 16 19 12 27 3 12 -12z m169 -11
c-8 -8 -11 -7 -11 4 0 20 13 34 18 19 3 -7 -1 -17 -7 -23z m309 29 c0 -9 -30
-14 -35 -6 -4 6 3 10 14 10 12 0 21 -2 21 -4z m-672 -20 c-10 -7 -18 -19 -18
-25 0 -7 -5 -9 -11 -6 -12 8 17 45 35 45 6 0 3 -7 -6 -14z m-68 -27 c0 -14
-16 -11 -29 5 -10 12 -8 13 8 9 12 -3 21 -9 21 -14z m683 14 c-7 -2 -19 -2
-25 0 -7 3 -2 5 12 5 14 0 19 -2 13 -5z m37 -7 c0 -3 -4 -8 -10 -11 -5 -3 -10
-1 -10 4 0 6 5 11 10 11 6 0 10 -2 10 -4z m-136 -32 c4 -10 1 -14 -6 -12 -15
5 -23 28 -10 28 5 0 13 -7 16 -16z m-549 -4 c-3 -5 -13 -10 -21 -10 -8 0 -14
5 -14 10 0 6 9 10 21 10 11 0 17 -4 14 -10z m640 0 c3 -5 2 -10 -4 -10 -5 0
-13 5 -16 10 -3 6 -2 10 4 10 5 0 13 -4 16 -10z m85 0 c0 -5 -4 -10 -9 -10 -6
0 -13 5 -16 10 -3 6 1 10 9 10 9 0 16 -4 16 -10z m-40 -10 c0 -5 -2 -10 -4
-10 -3 0 -8 5 -11 10 -3 6 -1 10 4 10 6 0 11 -4 11 -10z m-633 -6 c-3 -3 -12
-4 -19 -1 -8 3 -5 6 6 6 11 1 17 -2 13 -5z m53 -13 c0 -6 -4 -13 -10 -16 -5
-3 -10 1 -10 9 0 9 5 16 10 16 6 0 10 -4 10 -9z m565 -1 c3 -5 -1 -10 -9 -10
-9 0 -16 5 -16 10 0 6 4 10 9 10 6 0 13 -4 16 -10z m-645 -14 c0 -3 -4 -8 -10
-11 -5 -3 -10 -1 -10 4 0 6 5 11 10 11 6 0 10 -2 10 -4z m605 -6 c3 -5 1 -10
-4 -10 -6 0 -11 5 -11 10 0 6 2 10 4 10 3 0 8 -4 11 -10z m-165 -21 c0 -6 -4
-7 -10 -4 -5 3 -10 11 -10 16 0 6 5 7 10 4 6 -3 10 -11 10 -16z m44 5 c4 -10
1 -14 -6 -12 -15 5 -23 28 -10 28 5 0 13 -7 16 -16z m97 -6 c11 -21 11 -22 -4
-9 -10 7 -17 17 -17 22 0 15 9 10 21 -13z m-341 2 c0 -5 -5 -10 -11 -10 -5 0
-7 5 -4 10 3 6 8 10 11 10 2 0 4 -4 4 -10z m285 0 c3 -5 1 -10 -4 -10 -6 0
-11 5 -11 10 0 6 2 10 4 10 3 0 8 -4 11 -10z m-325 -4 c0 -2 -7 -7 -16 -10 -8
-3 -12 -2 -9 4 6 10 25 14 25 6z m-312 -110 c3 -13 -1 -17 -14 -14 -11 2 -20
11 -22 22 -3 13 1 17 14 14 11 -2 20 -11 22 -22z m882 11 c0 -7 -5 -18 -11
-24 -8 -8 -7 -17 2 -31 15 -24 9 -35 -14 -27 -11 5 -14 18 -12 48 3 50 2 47
20 47 8 0 15 -6 15 -13z m-785 -7 c4 -6 2 -17 -5 -25 -9 -10 -7 -16 7 -24 15
-9 16 -10 2 -11 -9 0 -22 7 -29 15 -7 8 -16 15 -21 15 -5 0 -9 -7 -9 -15 0 -8
-4 -15 -10 -15 -5 0 -10 16 -10 35 0 33 2 35 34 35 19 0 38 -5 41 -10z m261
-5 c9 -8 11 -15 5 -15 -15 0 -14 -27 2 -33 7 -3 5 -6 -6 -6 -19 -1 -38 35 -30
57 7 16 11 15 29 -3z m89 6 c-45 -9 -41 -44 5 -52 l35 -6 -37 -2 c-26 -1 -40
4 -47 16 -15 28 5 53 42 52 l32 -1 -30 -7z m100 -13 c22 4 25 1 24 -24 0 -27
-1 -28 -9 -6 -5 12 -14 22 -20 22 -6 0 -15 -10 -20 -22 -7 -19 -9 -17 -8 17 0
22 2 33 5 24 3 -11 12 -15 28 -11z m-579 -9 c12 -19 -12 -32 -36 -19 -18 10
-20 14 -9 21 19 12 36 11 45 -2z m229 -13 c0 -11 -7 -21 -15 -23 -13 -4 -13
-3 0 6 20 14 -1 36 -25 27 -14 -5 -15 -9 -5 -21 8 -10 9 -15 2 -15 -16 0 -25
19 -18 36 9 23 61 14 61 -10z m92 13 c6 -6 9 -18 6 -25 -8 -22 -22 -16 -16 6
4 16 0 20 -17 20 -17 0 -21 -4 -17 -20 3 -11 1 -20 -4 -20 -10 0 -12 33 -2 43
10 11 38 8 50 -4z m381 -16 c2 -13 -2 -23 -8 -23 -6 0 -10 8 -8 17 2 11 -6 19
-22 24 -23 7 -23 8 5 6 23 -2 31 -7 33 -24z m52 2 c0 -14 -4 -25 -10 -25 -5 0
-10 11 -10 25 0 14 5 25 10 25 6 0 10 -11 10 -25z m50 0 c0 -14 -4 -25 -10
-25 -5 0 -10 11 -10 25 0 14 5 25 10 25 6 0 10 -11 10 -25z m47 -5 c1 -14 0
-18 -3 -10 -4 8 -14 21 -23 28 -14 13 -14 13 4 10 13 -2 21 -12 22 -28z m102
21 c11 -7 9 -11 -9 -21 -18 -10 -24 -9 -31 1 -15 25 11 38 40 20z m-919 -37
c0 -8 -2 -14 -4 -14 -2 0 -11 -3 -20 -6 -19 -7 -22 16 -4 34 13 13 28 7 28
-14z m637 19 c-9 -2 -15 -9 -12 -14 4 -5 2 -9 -4 -9 -13 0 -22 15 -14 24 3 3
16 5 27 5 17 -1 18 -2 3 -6z m18 -93 c4 -6 -24 -10 -77 -11 -86 -1 -78 -15 12
-19 37 -2 41 -3 20 -9 -23 -7 -22 -9 19 -20 24 -7 67 -10 95 -7 l51 5 -45 -11
c-45 -11 -45 -12 -15 -19 17 -3 22 -7 12 -8 -9 0 -50 8 -90 19 l-72 20 37 -35
c22 -21 49 -36 65 -36 25 -2 26 -2 5 -6 -23 -4 -23 -5 -5 -19 16 -14 16 -14
-7 -3 -14 7 -50 31 -80 55 -53 41 -108 69 -117 60 -3 -3 22 -18 55 -35 42 -21
63 -38 72 -61 7 -17 26 -42 42 -55 16 -14 26 -25 21 -25 -5 0 -14 5 -21 12 -9
9 -12 8 -12 -6 0 -26 -17 -11 -23 22 -6 31 -43 82 -59 82 -6 0 -8 -15 -6 -34
5 -41 -8 -38 -17 3 -7 32 -31 58 -42 47 -4 -4 2 -26 13 -49 34 -69 44 -106 28
-100 -8 3 -14 17 -14 33 0 15 -9 35 -21 46 l-22 19 6 -44 c4 -29 2 -40 -4 -30
-5 7 -9 22 -9 32 0 9 -5 17 -11 17 -8 0 -10 -20 -7 -62 3 -35 3 -51 1 -35 -2
15 -9 25 -14 21 -6 -3 -8 4 -5 18 12 58 16 148 7 148 -5 0 -13 -9 -16 -21 -4
-12 -15 -29 -25 -39 -21 -21 -35 -96 -27 -137 4 -16 4 -22 0 -14 -5 11 -7 11
-15 0 -6 -10 -8 -2 -6 23 3 29 1 35 -9 26 -13 -10 14 69 43 126 8 16 12 31 10
34 -10 9 -39 -23 -57 -63 l-17 -40 5 38 c3 20 3 37 0 37 -29 0 -59 -38 -78
-100 -5 -17 -8 -19 -8 -7 -1 11 -6 15 -12 11 -7 -4 -3 6 8 22 11 16 27 41 36
55 8 14 40 38 71 54 31 16 54 30 52 32 -9 9 -79 -28 -124 -65 -26 -22 -63 -47
-82 -56 -29 -14 -32 -14 -16 -1 11 8 25 15 30 16 6 1 0 5 -14 9 l-25 8 28 1
c16 1 42 15 65 36 l37 35 -74 -21 c-41 -11 -84 -18 -95 -16 -13 3 -7 5 14 6
29 2 32 4 15 11 -17 7 -16 9 10 9 17 1 48 6 70 13 l40 12 -30 7 c-26 6 -23 7
20 9 97 4 104 18 10 19 -62 1 -85 4 -75 11 20 13 467 13 475 0z m-552 -67 c-7
-2 -19 -2 -25 0 -7 3 -2 5 12 5 14 0 19 -2 13 -5z"/>
<path d="M2120 2780 c0 -5 9 -10 20 -10 11 0 20 5 20 10 0 6 -9 10 -20 10 -11
0 -20 -4 -20 -10z"/>
</g>
</svg>
