<svg width="126" height="66" viewBox="0 0 512 512" version="1.1" xmlns="http://www.w3.org/2000/svg" viewBox="0 0 301.593 301.593" xmlns:xlink="http://www.w3.org/1999/xlink" enable-background="new 0 0 301.593 301.593">  <path d="m253.009,0h-205.576c-4.401,0-8.686,3.343-8.686,9.131-0.369,2.36 0,282.763 0,283.776 0,4.797 3.889,8.686 8.686,8.686h205.576c4.729,0 10-4.446 10-10.354v-105.271-70.011-105.271c0-5.105-4.515-10.686-10-10.686zm-58.132,105.957v-59.844h48.132v59.844h-48.132zm34.066,36.082v17.847c0,5.523-4.478,10-10,10-5.523,0-10-4.477-10-10v-17.847c0-5.522 4.477-10 10-10 5.522,0 10,4.478 10,10zm-54.066-26.082v23.248h-48.132v-93.092h48.132v69.844zm-68.131-69.844v93.092h-48.131v-93.092h48.131zm0,113.092v96.275h-48.131v-96.275h48.131zm20,96.275v-96.275h48.132v26.763 69.512h-48.132zm68.131,0v-59.512h48.132v59.512h-48.132z"/></svg>