<?xml version="1.0" ?><svg width="64px" height="64px" viewBox="0 0 64 64" xmlns="http://www.w3.org/2000/svg"><g id="a"/><g id="b"/><g id="c"/><g id="d"/><g id="e"/><g id="f"/><g id="g"/><g id="h"/><g id="i"/><g id="j"/><g id="k"/><g id="l"/><g id="m"/><g id="n"/><g id="o"/><g id="p"/><g id="q"/><g id="r"/><g id="s"/><g id="t"/><g id="u"/><g id="v"/><g id="w"/><g id="x"/><g id="y"/><g id="a`"/><g id="aa"/><g id="ab"/><g id="ac"/><g id="ad"/><g id="ae"/><g id="af"/><g id="ag"/><g id="ah"/><g id="ai"/><g id="aj"/><g id="ak"/><g id="al"/><g id="am"/><g id="an"/><g id="ao"/><g id="ap"/><g id="aq"/><g id="ar"/><g id="as"/><g id="at"/><g id="au"/><g id="av"><path d="M9.13,42.75l-3.4,3.4c-.98,.97-.98,2.55,0,3.53l8.59,8.59c.98,.97,2.55,.97,3.53,0l4.88-4.88-.4-9.73-13.2-.91Z" fill="#75cdf8" fill-rule="evenodd"/><path d="M47.91,5c-.64,0-1.27,.24-1.76,.73-1.27,1.28-2.55,2.55-3.82,3.82l5.45,12.29,5.61,.89,4.88-4.88c.98-.97,.98-2.55,0-3.53l-8.59-8.59c-.49-.49-1.13-.73-1.76-.73Z" fill="#75cdf8" fill-rule="evenodd"/><path d="M24.29,46.44l22.15-22.15,3.47-.89,.91-3.5c.75-.74,.75-1.95,0-2.69l-11.47-11.47c-.37-.37-.86-.56-1.35-.56s-.98,.19-1.35,.56L5.74,36.65c-.75,.75-.75,1.95,0,2.7l14.16,14.17,4.38-7.08Z" fill="#8fd7f8" fill-rule="evenodd"/><path d="M46.43,24.29l1.35,1.35c.75,.75,1.95,.75,2.7,0l3.03-3.04c.75-.74,.75-1.95,0-2.7-.37-.37-.86-.56-1.35-.56s-.98,.19-1.35,.56l-4.38,4.39Z" fill="#6bbdf5" fill-rule="evenodd"/><path d="M38,5.18c-.49,0-.98,.19-1.35,.56l-4.38,4.38c.75-.74,1.95-.74,2.7,0l11.47,11.47c.74,.74,.75,1.94,.01,2.69l4.37-4.38c.75-.74,.75-1.95,0-2.69l-11.47-11.47c-.37-.37-.86-.56-1.35-.56Z" fill="#75cdf8" fill-rule="evenodd"/><path d="M19.9,50.82c-.75,.75-.75,1.95,0,2.7,.75,.74,1.95,.74,2.7,0l3.04-3.04c.75-.74,.75-1.95,0-2.7l-1.35-1.34-4.38,4.38Z" fill="#6bbdf5" fill-rule="evenodd"/><path d="M17.84,40.8l-3.11-3.11c-.39-.39-1.02-.39-1.41,0-.39,.39-.39,1.02,0,1.41l3.11,3.11c.16,.16,.25,.37,.25,.59,0,.23-.09,.46-.26,.63-.17,.17-.39,.26-.62,.26h0c-.23,0-.44-.09-.61-.26l-.58-.57c-.39-.39-1.03-.38-1.41,0-.39,.39-.38,1.03,0,1.41l.57,.56c.54,.54,1.26,.84,2.02,.84h0c.77,0,1.49-.3,2.04-.85,.55-.55,.85-1.28,.85-2.05,0-.76-.3-1.48-.84-2.01Z"/><path d="M19.58,41.7c.2,.2,.45,.29,.71,.29s.51-.1,.71-.29c.39-.39,.39-1.02,0-1.41l-1.65-1.65,1.04-1.04,1.65,1.65c.39,.39,1.02,.39,1.41,0,.39-.39,.39-1.02,0-1.41l-3.49-3.49c-1.04-1.04-2.84-1.03-3.86,0-.52,.51-.8,1.19-.81,1.92,0,.73,.28,1.43,.8,1.95l3.49,3.49Zm-2.08-5.94c.28-.28,.76-.28,1.04,0l.42,.42-1.04,1.04-.42-.42c-.14-.14-.22-.33-.22-.53,0-.19,.08-.37,.22-.51Z"/><path d="M20.63,34.17l1.64,1.64c.6,.6,1.4,.9,2.19,.9s1.58-.3,2.19-.9,.91-1.37,.91-2.19c0-.55-.45-1-1-1s-1,.45-1,1c0,.29-.12,.57-.32,.77-.43,.43-1.12,.43-1.55,0l-1.64-1.64c-.43-.43-.43-1.12,0-1.55,.2-.2,.48-.32,.77-.32,.55,0,1-.45,1-1s-.45-1-1-1c-.83,0-1.61,.32-2.19,.9-1.21,1.21-1.21,3.17,0,4.37Z"/><path d="M23.52,26.91c-.39,.39-.39,1.02,0,1.41l4.72,4.72c.2,.2,.45,.29,.71,.29s.51-.1,.71-.29c.39-.39,.39-1.02,0-1.41l-.74-.74,2-.07c.55-.02,.98-.48,.96-1.04-.02-.55-.48-1-1.04-.96l-3.21,.12,.12-3.21c.02-.55-.41-1.02-.96-1.04-.54-.02-1.02,.41-1.04,.96l-.08,2-.74-.74c-.39-.39-1.02-.39-1.41,0Z"/><path d="M27.58,24.27l4.72,4.71c.2,.19,.45,.29,.71,.29s.51-.1,.71-.29c.39-.39,.39-1.02,0-1.41l-1.65-1.65,.87-.88c1.04-1.03,1.04-2.73,0-3.78-1.04-1.04-2.73-1.03-3.77,0l-1.58,1.59c-.39,.39-.39,1.02,0,1.41Zm3-1.59c.26-.26,.69-.26,.94,0,.27,.27,.27,.69,0,.95l-.88,.88-.95-.94,.88-.88Z"/><path d="M35.29,22.78c.6,.6,1.4,.9,2.19,.9s1.58-.3,2.19-.9c.59-.59,.91-1.36,.91-2.19s-.32-1.6-.91-2.19l-1.63-1.63c-1.21-1.21-3.17-1.2-4.38,0-.59,.59-.91,1.36-.91,2.19,0,.82,.32,1.6,.91,2.19l1.63,1.63Zm-.22-4.59c.21-.21,.49-.32,.77-.32s.56,.11,.78,.32l1.63,1.63c.21,.21,.32,.48,.32,.77s-.11,.56-.32,.77c-.43,.43-1.11,.43-1.55,0l-1.63-1.63c-.21-.21-.32-.48-.32-.77,0-.29,.11-.56,.32-.77Z"/><path d="M37.68,15.16c.26,0,.51-.1,.71-.29l.83-.83,4.01,4.01c.2,.2,.45,.29,.71,.29s.51-.1,.71-.29c.39-.39,.39-1.02,0-1.41l-4.01-4.01,.83-.83c.39-.39,.39-1.02,0-1.41-.39-.39-1.02-.39-1.41,0l-3.08,3.08c-.39,.39-.39,1.02,0,1.41,.2,.2,.45,.29,.71,.29Z"/><path d="M50.38,5.02c-1.36-1.35-3.58-1.35-4.94,0l-2.7,2.7-2.68-2.68c-1.1-1.1-3.01-1.1-4.11,0L5.03,35.94c-1.13,1.13-1.13,2.98,0,4.11l2.69,2.69-2.69,2.69c-.66,.66-1.03,1.54-1.03,2.47s.37,1.81,1.03,2.47l8.6,8.6c.68,.67,1.57,1.01,2.47,1.01s1.79-.34,2.47-1.02l7.78-7.79c.55-.54,.85-1.27,.86-2.05,0-.78-.3-1.52-.86-2.07l-.64-.64,20.73-20.73,.64,.64c.55,.55,1.28,.86,2.06,.86s1.51-.3,2.06-.86l7.78-7.79c.66-.66,1.03-1.54,1.03-2.47s-.37-1.81-1.03-2.47l-8.59-8.6ZM6.45,37.36L37.36,6.45c.17-.17,.4-.27,.64-.27s.47,.1,.64,.27l11.47,11.47c.17,.17,.26,.39,.26,.63,0,.25-.09,.48-.27,.65l-30.91,30.91h0c-.23,.23-.37,.5-.51,.77l-12.24-12.24c-.36-.36-.36-.93,0-1.29Zm10.7,20.2c-.58,.58-1.54,.58-2.12,0l-8.6-8.6c-.28-.28-.44-.65-.44-1.05s.16-.77,.44-1.05l2.7-2.7c9.39,9.4,9.75,10.04,10.84,10.58l-2.82,2.82Zm7.78-9.07c.17,.17,.27,.41,.27,.65,0,.24-.09,.46-.27,.64l-2.9,2.91h0l-.13,.13c-.36,.35-.94,.35-1.29,0-.36-.36-.36-.93,0-1.29l3.68-3.68,.64,.64Zm24.85-23.55c-.35,.35-.94,.35-1.28,0l-.64-.64,3.68-3.68c.35-.35,.93-.35,1.29,0,.17,.17,.26,.39,.26,.63,0,.24-.09,.47-.27,.64l-3.03,3.04Zm7.78-7.79l-2.82,2.82c-.14-.27-.29-.54-.51-.76-.5-.51-1.18-.75-1.87-.79-.04-.72-.31-1.4-.83-1.91l-7.37-7.37,2.69-2.69c.58-.58,1.53-.58,2.12,0l8.59,8.6c.28,.28,.44,.65,.44,1.05s-.16,.77-.44,1.05Z"/><path d="M19.4,28.08c.26,0,.52-.1,.71-.29,.39-.39,.39-1.02,0-1.41-.19-.19-.44-.29-.71-.29s-.52,.1-.71,.29c-.39,.39-.39,1.02,0,1.41,.19,.19,.44,.29,.71,.29Z"/><path d="M23.95,23.95c.39-.39,.39-1.03,0-1.42-.39-.38-1.03-.38-1.41,0-.39,.39-.39,1.03,0,1.42,.39,.39,1.03,.39,1.41,0Z"/><path d="M27.79,20.1c.19-.18,.29-.44,.29-.7s-.1-.52-.29-.71c-.39-.39-1.03-.39-1.41,0-.19,.19-.29,.44-.29,.71s.11,.52,.29,.7c.39,.39,1.03,.39,1.41,0Z"/><path d="M29.35,36.04c-.27,0-.52,.11-.71,.29-.19,.19-.29,.45-.29,.71s.11,.52,.29,.71c.19,.19,.44,.29,.71,.29s.52-.1,.71-.29c.19-.19,.29-.44,.29-.71s-.11-.52-.29-.71c-.19-.18-.44-.29-.71-.29Z"/><path d="M32.49,32.49c-.19,.19-.29,.44-.29,.71s.11,.52,.29,.7c.39,.39,1.03,.39,1.41,0,.19-.18,.29-.44,.29-.7s-.11-.52-.29-.71c-.39-.39-1.03-.39-1.41,0Z"/><path d="M36.34,28.65c-.39,.38-.39,1.02,0,1.41,.39,.39,1.03,.39,1.41,0,.39-.39,.39-1.03,0-1.41-.39-.39-1.03-.39-1.41,0Z"/></g><g id="aw"/><g id="ax"/></svg>