<svg version="1.1" id="Layer_1" xmlns="http://www.w3.org/2000/svg" xmlns:xlink="http://www.w3.org/1999/xlink" x="0px" y="0px"
	 viewBox="0 0 512.001 512.001" style="enable-background:new 0 0 512.001 512.001;" xml:space="preserve">
<g>
	<g>
		<path d="M509.155,107.592c-6.538-31.939-24.424-60.367-50.364-80.047c-25.854-19.616-58.043-29.3-90.659-27.281
			c-12.666,0.786-22.828,3.336-32.655,5.8c-21.718,5.45-46.336,11.626-109.834,0.657c-3.919-0.674-7.85,1.152-9.856,4.588
			l-18.922,32.405C113.097,45.25,45.251,113.096,43.714,196.862l-32.407,18.923c-3.435,2.006-5.264,5.935-4.586,9.856
			c10.968,63.498,4.792,88.115-0.657,109.834c-2.465,9.828-5.015,19.99-5.801,32.655c-2.022,32.61,7.667,64.807,27.281,90.661
			c19.681,25.94,48.109,43.826,80.047,50.364c9.308,1.906,18.622,2.846,27.843,2.846c27.994,0,55.112-8.676,78.385-25.399
			c1.449-1.041,2.785-2.198,4.007-3.45c32.2-27.491,49.816-68.897,47.179-111.175c-1.998-32.081-15.396-62.449-37.72-85.51
			c-21.641-22.352-50.374-36.561-81.08-40.194c-0.759-4.797-2.38-9.47-4.859-13.822l-34.823-61.108
			c-1.261-2.212-3.355-3.828-5.813-4.487c-2.453-0.661-5.078-0.309-7.279,0.975l-29.927,17.474
			c6.746-64.028,57.77-115.051,121.797-121.797l-17.475,29.928c-1.284,2.198-1.635,4.819-0.976,7.279
			c0.661,2.46,2.277,4.552,4.489,5.812l61.108,34.823c4.351,2.48,9.024,4.101,13.822,4.86c3.632,30.706,17.841,59.439,40.193,81.078
			c23.061,22.326,53.427,35.722,85.509,37.722c2.781,0.174,5.553,0.259,8.323,0.259c37.437,0,73.508-15.718,99.044-43.162
			c1.302-1.4,6.223-6.84,7.26-8.284C508.833,182.879,516.843,145.153,509.155,107.592z M144.664,265.293
			c26.095,3.249,50.498,15.403,68.923,34.436c19.17,19.8,30.673,45.879,32.389,73.432c1.708,27.379-6.478,54.332-22.461,76.061
			c-1.745-3.744-4.255-7.144-7.457-9.973l-0.29-0.254c-2.798-2.471-5.951-4.34-9.28-5.621
			c11.475-15.845,17.685-34.828,17.684-54.773c-0.001-25.012-9.742-48.527-27.427-66.212c-18.08-18.08-42.004-27.397-66.099-27.444
			C137.213,280.007,142.077,273.215,144.664,265.293z M170.291,442.064c-13.396,7.832-28.916,11.142-44.542,9.337
			c-19.115-2.208-36.228-11.728-48.184-26.806c-11.954-15.079-17.324-33.911-15.116-53.026c0.024-0.2,0.039-0.4,0.051-0.601
			c0.018-0.364,1.77-27.052,26.675-54.414c29.48-19.718,68.895-15.871,94.087,9.319c14.085,14.085,21.843,32.811,21.844,52.729
			c0.001,19.921-7.757,38.651-21.839,52.734c-0.062,0.061-6.21,6.175-12.994,10.7L170.291,442.064z M94.729,189.155l30.052,52.737
			c2.889,5.07,3.614,10.956,2.039,16.575c-1.553,5.539-5.162,10.116-10.161,12.887c-67.287,37.302-72.799,92.832-73.178,98.274
			c-2.719,24.091,4.076,47.809,19.146,66.813c15.121,19.069,36.761,31.109,60.938,33.902c23.388,2.698,46.609-3.628,65.385-17.82
			c4.163-3.146,10.137-2.826,14.207,0.772l0.29,0.255c2.611,2.306,4.007,5.626,3.833,9.112c-0.127,2.53-1.086,4.879-2.691,6.727
			c-0.13,0.108-0.256,0.221-0.385,0.329l0.033,0.039c-0.468,0.491-0.974,0.953-1.536,1.358
			c-26.572,19.092-58.988,25.967-91.28,19.358c-27.406-5.61-51.796-20.954-68.679-43.208
			c-16.856-22.217-25.181-49.901-23.441-77.955c0.676-10.912,2.905-19.793,5.264-29.196c5.714-22.776,12.165-48.492,2.044-111.18
			L94.729,189.155z M373.163,245.976c-27.553-1.717-53.631-13.221-73.432-32.39c-19.034-18.426-31.188-42.828-34.436-68.923
			c7.921-2.587,14.713-7.451,19.651-14.016c0.047,24.094,9.364,48.017,27.444,66.099c17.685,17.686,41.2,27.426,66.212,27.429
			c0.004,0,0.004,0,0.008,0c19.94,0,38.919-6.21,54.765-17.684c1.283,3.332,3.155,6.486,5.628,9.286l0.257,0.29
			c2.825,3.197,6.22,5.706,9.961,7.451C427.494,239.498,400.544,247.681,373.163,245.976z M316.69,88.969
			c26.811-24.402,52.834-26.379,54.278-26.469c0.201-0.01,0.4-0.027,0.601-0.051c19.118-2.207,37.949,3.16,53.027,15.116
			s24.599,29.067,26.807,48.184c1.802,15.624-1.506,31.146-9.34,44.542l-0.027-0.018c-4.486,6.73-10.641,12.937-10.695,12.99
			c-14.086,14.086-32.813,21.844-52.732,21.843c-0.001,0-0.005,0-0.006,0c-19.918-0.001-38.645-7.759-52.728-21.843
			C300.626,158.013,296.82,118.471,316.69,88.969z M471.117,202.693c-0.404,0.563-0.867,1.069-1.359,1.538l-0.039-0.033
			c-0.108,0.13-0.22,0.254-0.328,0.384c-1.85,1.607-4.199,2.564-6.728,2.691c-3.475,0.173-6.806-1.222-9.117-3.839l-0.257-0.29
			c-3.59-4.064-3.911-10.036-0.764-14.199c14.193-18.777,20.521-41.998,17.818-65.385c-2.792-24.176-14.832-45.817-33.902-60.938
			c-16.265-12.896-35.977-19.73-56.426-19.73c-3.445,0-6.913,0.193-10.386,0.586c-5.436,0.379-60.971,5.888-98.275,73.179
			c-2.771,5-7.348,8.607-12.887,10.161c-5.62,1.575-11.504,0.852-16.575-2.038l-52.736-30.052l39.778-68.125
			c62.688,10.12,88.406,3.669,111.182-2.045c9.402-2.358,18.284-4.586,29.194-5.263c28.06-1.744,55.74,6.586,77.955,23.44
			c22.254,16.884,37.598,41.275,43.208,68.68C497.084,143.705,490.209,176.121,471.117,202.693z"/>
	</g>
</g>
<g>
	<g>
		<circle cx="248.406" cy="77.467" r="9.534"/>
	</g>
</g>
<g>
	<g>
		<circle cx="77.472" cy="248.418" r="9.534"/>
	</g>
</g>
<g>
</g>
<g>
</g>
<g>
</g>
<g>
</g>
<g>
</g>
<g>
</g>
<g>
</g>
<g>
</g>
<g>
</g>
<g>
</g>
<g>
</g>
<g>
</g>
<g>
</g>
<g>
</g>
<g>
</g>
</svg>