<?xml version="1.0" encoding="iso-8859-1"?>
<!-- Generator: Adobe Illustrator 19.0.0, SVG Export Plug-In . SVG Version: 6.00 Build 0)  -->
<svg version="1.1" id="Layer_1" xmlns="http://www.w3.org/2000/svg" xmlns:xlink="http://www.w3.org/1999/xlink" x="0px" y="0px"
	 viewBox="0 0 511.989 511.989" style="enable-background:new 0 0 511.989 511.989;" xml:space="preserve">
<path style="fill:#5D9CEC;" d="M398.523,408.276l-1.266-0.344c-18.469-4.969-24.719-9.75-32.953-12.875
	c-29.155-11.094-36.748-19.123-38.686-22.904c-0.078-0.125-0.125-0.281-0.188-0.406l-0.25-33.906l-69.185-0.782l-69.186,0.781
	l-0.242,33.906c-0.062,0.125-0.117,0.281-0.188,0.406c-1.938,3.781-9.531,11.811-38.703,22.904
	c-8.226,3.125-14.476,7.906-32.944,12.875l-1.273,0.344c-16.812,5.564-28.125,21.156-28.125,38.781v48.936h170.661h170.653v-48.936
	C426.648,429.432,415.336,413.841,398.523,408.276z"/>
<path style="fill:#EAC6BB;" d="M351.992,272.28c0,62.373-59.467,119.777-95.997,119.777c-36.538,0-96.005-57.404-96.005-119.777
	c0-62.366,42.983-103.521,96.005-103.521C309.025,168.759,351.992,209.914,351.992,272.28z"/>
<path style="fill:#EC87C0;" d="M490.646,421.307c0,5.906-4.766,10.688-10.655,10.688c-5.891,0-10.656-4.781-10.656-10.688
	c0-5.873,4.766-10.656,10.656-10.656C485.881,410.651,490.646,415.434,490.646,421.307z"/>
<path style="fill:#FFCE54;" d="M405.336,101.323c0,5.891-4.781,10.671-10.688,10.671c-5.875,0-10.656-4.781-10.656-10.671
	s4.781-10.672,10.656-10.672C400.555,90.65,405.336,95.433,405.336,101.323z"/>
<path style="fill:#FC6E51;" d="M85.335,293.311c0,5.906-4.781,10.686-10.671,10.686S64,299.218,64,293.311
	c0-5.875,4.773-10.656,10.664-10.656S85.335,287.436,85.335,293.311z"/>
<path style="fill:#48CFAD;" d="M21.336,186.461c0,5.891-4.781,10.656-10.672,10.656C4.774,197.117,0,192.352,0,186.461
	c0-5.89,4.773-10.671,10.664-10.671S21.336,180.571,21.336,186.461z"/>
<path style="fill:#AC92EB;" d="M42.664,421.307c0,5.906-4.774,10.688-10.665,10.688c-5.89,0-10.664-4.781-10.664-10.688
	c0-5.873,4.773-10.656,10.664-10.656C37.891,410.651,42.664,415.434,42.664,421.307z"/>
<path style="fill:#A0D468;" d="M493.74,37.323c0,5.891-4.781,10.672-10.655,10.672c-5.906,0-10.688-4.781-10.688-10.672
	c0-5.89,4.781-10.671,10.688-10.671C488.959,26.653,493.74,31.434,493.74,37.323z"/>
<path style="fill:#ED5564;" d="M117.334,37.323V26.653c0-5.891-4.781-10.656-10.672-10.656c-5.89,0-10.664,4.766-10.664,10.656
	v10.671c-5.891,0-10.664,4.782-10.664,10.672c0,5.891,4.773,10.656,10.664,10.656v10.672c0,5.89,4.773,10.671,10.664,10.671
	s10.672-4.781,10.672-10.671V58.652c5.891,0,10.664-4.766,10.664-10.656C127.998,42.105,123.225,37.323,117.334,37.323z"/>
<path style="fill:#48CFAD;" d="M501.334,186.649v-10.656c0-5.891-4.781-10.672-10.688-10.672c-5.875,0-10.655,4.781-10.655,10.672
	v10.656c-5.891,0-10.656,4.781-10.656,10.671c0,5.891,4.766,10.672,10.656,10.672v10.656c0,5.89,4.78,10.671,10.655,10.671
	c5.906,0,10.688-4.781,10.688-10.671v-10.656c5.874,0,10.655-4.781,10.655-10.672C511.989,191.431,507.208,186.649,501.334,186.649z
	"/>
<path style="fill:#967ADC;" d="M417.586,206.977c-9.359-4.156-22.453-7.844-38.938-10.938c-32.874-6.187-76.436-9.578-122.653-9.578
	c-46.225,0-89.787,3.391-122.646,9.578c-16.492,3.094-29.585,6.781-38.937,10.938c-13.101,5.828-19.75,13.312-19.75,22.25
	c0,8.921,6.648,16.406,19.75,22.234c9.352,4.156,22.445,7.843,38.937,10.937c32.858,6.188,76.42,9.594,122.646,9.594
	c46.218,0,89.779-3.406,122.653-9.594c16.484-3.094,29.578-6.781,38.938-10.937c13.093-5.828,19.749-13.312,19.749-22.234
	C437.335,220.289,430.679,212.805,417.586,206.977z"/>
<path style="fill:#AC92EB;" d="M329.994,216.664c-0.078-0.422-8.25-43.453-18.844-85.92c-6.281-25.155-12.188-45.265-17.562-59.795
	c-7.453-20.188-14.906-33.625-26.929-33.625c-23.539,0-43.726,29.5-63.506,92.811c-13.367,42.78-21.304,84.78-21.64,86.545
	l-0.852,4.562l2.75,3.734c4.125,5.609,19.046,15.015,72.584,15.015c23.062,0,63.108-1.984,72.296-15.265l2.547-3.671
	L329.994,216.664z"/>
<path style="fill:#E6E9ED;" d="M299.713,325.277c-10.641-7.156-24.937-10.625-43.718-10.625c-18.773,0-33.077,3.469-43.725,10.625
	c-13.515,9.062-20.367,23.438-20.367,42.719c0,19.092,6.727,49.938,16.359,74.998c13.507,35.188,29.569,52.998,47.733,52.998
	c18.156,0,34.218-17.811,47.733-52.998c9.641-25.061,16.359-55.906,16.359-74.998C320.088,348.716,313.244,334.341,299.713,325.277z
	"/>
<path style="fill:#434A54;" d="M266.659,357.309h-21.328c-5.891,0-10.671-4.781-10.671-10.656c0-5.906,4.781-10.656,10.671-10.656
	h21.328c5.898,0,10.679,4.75,10.679,10.656C277.338,352.527,272.557,357.309,266.659,357.309z"/>
<path style="opacity:0.1;fill:#080808;enable-background:new    ;" d="M323.963,186.852c-0.094,0.016-0.188,0.031-0.281,0.062
	c-7.375,2.219-29.453,6.656-42.625,0.531c-5.344-2.484-11.687-0.156-14.171,5.172c-2.484,5.343-0.164,11.687,5.172,14.171
	c7.312,3.406,16.124,5.109,26.296,5.109c3.812,0,7.797-0.234,11.984-0.719c8.219-0.938,14.953-2.594,17.922-3.391
	C327.228,202.586,325.76,195.368,323.963,186.852z"/>
<path style="fill:#965353;" d="M341.337,495.992c-1.094,0-2.219-0.188-3.312-0.531c-5.594-1.811-8.655-7.842-6.843-13.436
	c0.141-0.438,14.358-44.219,30.232-89.938c29.203-84.061,38.484-101.809,42.922-107.809c9.188-12.461,27.187-13.883,40.968-11.062
	c17.812,3.625,30.812,14.062,33.938,27.248c4.094,17.219-9.094,31.906-20.875,41.188c-8,6.312-18.219,6.906-26.688,1.562
	c-9.155-5.781-13.968-16.969-11.655-27.188c1.312-5.75,7.015-9.344,12.765-8.031c5.734,1.281,9.344,7,8.047,12.75
	c-0.312,1.375,0.75,3.5,2.234,4.406c0.672,0.438,1.016,0.594,2.094-0.25c9.484-7.469,14.453-14.75,13.328-19.5
	c-1.109-4.719-8.453-9.467-17.453-11.279c-9.484-1.969-17.39-0.094-19.546,2.812c-10.188,13.811-48.344,124.902-70.031,191.684
	C350.009,493.12,345.837,495.992,341.337,495.992z"/>
<g>
</g>
<g>
</g>
<g>
</g>
<g>
</g>
<g>
</g>
<g>
</g>
<g>
</g>
<g>
</g>
<g>
</g>
<g>
</g>
<g>
</g>
<g>
</g>
<g>
</g>
<g>
</g>
<g>
</g>
</svg>
